<?xml version="1.0" encoding="UTF-8"?>
<!DOCTYPE svg PUBLIC "-//W3C//DTD SVG 1.1//EN" "http://www.w3.org/Graphics/SVG/1.1/DTD/svg11.dtd">
<!-- Creator: CorelDRAW Standard 2021 (64 Bit) -->
<svg xmlns="http://www.w3.org/2000/svg" xml:space="preserve" width="9.8057mm" height="8.588mm" version="1.1" style="shape-rendering:geometricPrecision; text-rendering:geometricPrecision; image-rendering:optimizeQuality; fill-rule:evenodd; clip-rule:evenodd"
viewBox="0 0 128.49 112.53"
 xmlns:xlink="http://www.w3.org/1999/xlink"
 xmlns:xodm="http://www.corel.com/coreldraw/odm/2003">
 <defs>
  <style type="text/css">
   <![CDATA[
    .fil0 {fill:#CCCCCC}
    .fil1 {fill:#E6E6E6}
   ]]>
  </style>
 </defs>
 <g id="Camada_x0020_1">
  <metadata id="CorelCorpID_0Corel-Layer"/>
  <path class="fil0" d="M1.03 80.27c2.78,21.09 33.28,38.12 62.28,30.34 12.87,-3.45 23.64,-10.78 29.95,-19.08 9.13,-11.99 11.15,-20.76 9.59,-38.54 -6.45,0.2 -19.61,4.77 -26.2,6.55l-75.62 20.72zm72.85 -50.84c7,-9.9 22.91,-17.85 36.46,-18.99 6.08,-0.51 12.56,2.24 17.01,-0.03 4.67,-4.42 -5,-17.99 -31.36,-4.77 -9.71,4.87 -20.71,14.63 -25.46,23.5 -7.6,-0.62 -39.32,-18.56 -46.98,-17.68 -3.68,16.33 2.45,21.36 8.12,29.16l47.63 0.15c1.06,-2.92 1.69,-2.66 1.74,-6.33 -7.03,-3.56 -6.09,-1.8 -7.17,-5.01zm12.3 13.73l-78.38 -0.18c-4.46,-0.1 -7.24,-1.11 -7.77,2.69 -0.26,1.88 1.48,7.89 2.08,9.29 2.41,5.67 4.56,8.65 8.68,12.74 6.91,6.84 5.67,4.86 15.09,2.2l50.53 -14.1c8.43,-2.36 10.71,-1.41 9.77,-12.64z"/>
  <ellipse class="fil1" transform="matrix(1.56909 -0.432571 0.265769 0.964037 84.3468 69.7307)" rx="4.94" ry="4.66"/>
  <ellipse class="fil1" transform="matrix(1.12098 -0.309037 0.18987 0.688724 70.8089 82.4493)" rx="4.94" ry="4.66"/>
 </g>
</svg>
