<?xml version="1.0" encoding="UTF-8"?>
<!DOCTYPE svg PUBLIC "-//W3C//DTD SVG 1.1//EN" "http://www.w3.org/Graphics/SVG/1.1/DTD/svg11.dtd">
<!-- Creator: CorelDRAW Standard 2021 (64 Bit) -->
<svg xmlns="http://www.w3.org/2000/svg" xml:space="preserve" width="102.71mm" height="25.9232mm" version="1.1" style="shape-rendering:geometricPrecision; text-rendering:geometricPrecision; image-rendering:optimizeQuality; fill-rule:evenodd; clip-rule:evenodd"
viewBox="0 0 5382.36 1358.46"
 xmlns:xlink="http://www.w3.org/1999/xlink"
 xmlns:xodm="http://www.corel.com/coreldraw/odm/2003">
 <defs>
  <style type="text/css">
   <![CDATA[
    .fil2 {fill:#CCCCCC}
    .fil4 {fill:#D00807}
    .fil5 {fill:red}
    .fil3 {fill:white}
    .fil0 {fill:#4D4D4D;fill-rule:nonzero}
    .fil1 {fill:#D00807;fill-rule:nonzero}
   ]]>
  </style>
 </defs>
 <g id="Camada_x0020_1">
  <metadata id="CorelCorpID_0Corel-Layer"/>
  <path class="fil0" d="M1866.7 145.22c-10.63,157.66 -17.94,315.32 -25.78,473.33 -3.84,77.52 -7.67,155.05 -11.32,232.57 -3.84,77.53 -12.19,158.53 -1.05,235.53 3.31,21.6 38.85,55.75 48.26,22.3 19.86,-70.9 18.12,-151.73 21.77,-226.13 0.35,-8.36 0.7,-16.72 1.22,-25.09 5.22,-21.08 9.23,-43.03 14.11,-63.06 0.17,-1.22 0.52,-2.44 0.87,-3.48 3.66,90.42 51.74,174.73 113.94,214.8 45.64,29.44 95.81,43.9 146.86,44.77 51.04,0.7 75.61,-54.88 38.85,-104.87 -8.36,-11.5 -20.73,-14.64 -31.88,-9.93 -12.55,5.22 -20.56,17.77 -34.15,21.25 -11.68,3.13 -27.35,1.22 -38.85,1.22 -30.83,0.18 -60.27,3.31 -88.33,-16.38 -49.65,-34.84 -73.86,-102.09 -78.04,-171.6 9.23,7.49 19.16,13.24 29.61,16.38 54.36,17.07 114.81,-9.58 161.15,-45.3 90.6,-69.86 157.32,-184.84 181.7,-317.41 22.3,-121.25 -0.52,-287.8 -107.48,-327.34 -113.76,-41.99 -190.07,98.6 -222.65,218.46 -26.13,95.47 -44.77,195.29 -66.2,292.68 -3.13,13.93 -6.27,27.87 -9.23,41.81 -0.18,0.18 -0.35,0.18 -0.35,0.18 7.49,-158.54 15.51,-316.89 20.38,-475.6 1.22,-41.64 -59.93,-82.58 -63.41,-29.09l0 0zm116.72 569.32c-13.24,3.48 -63.76,-3.83 -34.15,-26.31 24.91,-18.81 59.93,-14.63 88.68,-1.74 -5.58,3.31 -11.32,6.62 -17.07,9.93 -12.02,6.79 -24.39,14.63 -37.46,18.12l0 0zm25.26 -308.7c18.81,-75.95 38.67,-164.28 94.42,-208.18 43.9,-34.66 113.76,-58.36 141.28,17.07 44.6,121.78 -26.48,286.05 -91.46,371.07 -23.69,31.18 -50.35,55.75 -78.92,76.82 -38.15,-27 -79.96,-37.28 -120.9,-28.92 18.47,-75.96 36.76,-151.91 55.57,-227.87l0 0zm605.04 316.54c-52.44,41.46 -131.36,91.29 -202.43,79.79 -36.59,-6.09 -46.86,-33.79 -43.73,-64.11 34.5,-4.35 69.16,-13.93 101.4,-25.61 32.75,-11.84 78.91,-28.92 98.08,-60.1 15.51,-24.91 5.93,-53.66 -14.11,-73.52 -26.65,-26.31 -64.8,-31.71 -100,-22.3 -68.47,18.47 -130.83,77.7 -142.33,148.95 -10.45,65.15 31.01,135.36 97.91,146.68 86.76,14.64 172.12,-50.7 231.87,-105.05 13.24,-12.19 -12.72,-35.71 -26.65,-24.74l0 0zm-145.64 -106.44c11.85,-4.35 55.57,-16.73 49.65,2.79 -8.88,29.61 -56.27,52.26 -81.71,64.46 -19.86,9.41 -40.07,16.2 -60.63,22.48 5.75,-15.16 13.77,-29.09 22.48,-39.2 18.81,-22.3 42.68,-40.07 70.2,-50.52l0 0zm517.41 99.47c-45.99,59.41 -108.53,98.61 -181.18,116.72 -33.27,8.19 -78.57,15.68 -108.18,-6.79 -29.09,-22.12 -32.93,-70.21 -27.18,-102.79 14.29,-80.66 86.93,-152.61 169.86,-157.31 15.16,-0.87 31.7,-1.57 43.2,9.76 16.9,16.55 11.85,46.34 0,64.28 -7.66,11.5 -21.77,24.22 -35.89,26.65 -27.87,4.88 -30.32,-40.76 -32.93,-60.27 -1.22,-8.89 -20.03,-17.95 -20.9,-4.88 -2.27,34.49 5.75,82.75 44.77,93.55 32.58,9.06 66.55,-13.24 83.27,-39.72 21.95,-34.66 15.68,-82.75 -13.06,-111.67 -32.41,-32.58 -79.44,-35.02 -122.13,-24.91 -92.5,21.6 -168.63,111.32 -171.77,207.31 -3.14,93.9 63.76,172.47 160.97,162.37 94.6,-9.93 183.27,-72.47 236.06,-149.12 9.23,-13.59 -14.63,-36.58 -24.91,-23.17l0 0zm219.86 15.33c-22.12,23.35 -124.39,137.8 -149.12,80.14 -16.73,-38.85 -8.36,-89.2 -1.57,-129.61 4.71,-29.09 11.85,-57.66 20.21,-85.89 2.09,-0.7 4,-1.57 6.27,-2.61 25.61,-12.54 0,-44.77 -16.03,-51.56 -8.36,-3.48 -14.81,-5.05 -23.69,-6.09 -9.41,-1.05 -21.6,2.78 -24.74,12.89 -27.35,87.1 -66.9,229.78 6.1,305.04 76.13,78.4 170.55,-39.37 206.96,-103.65 6.45,-11.5 -14.98,-28.57 -24.39,-18.64l0 0zm-137.63 -284.31c4.88,2.79 10.1,4.53 15.68,5.05 6.62,0.88 12.89,-0.17 18.99,-2.96 6.27,-1.92 13.77,-5.4 17.95,-10.45 9.41,-11.15 11.67,-27.35 5.4,-40.59 -9.41,-19.86 -29.96,-32.93 -52.09,-30.14 -6.45,0.7 -11.85,3.14 -17.77,5.4 -8.36,2.61 -14.46,6.97 -18.47,15.16 -5.4,10.98 -1.22,24.57 4.35,34.32 6.27,10.8 14.81,18.99 25.96,24.22l0 0zm544.58 301.39c-24.56,0.17 -49.65,1.22 -74.91,2.79 4.01,-10.8 7.32,-21.95 10.1,-33.1 18.12,-77.35 -3.13,-172.82 -79.96,-210.62 -72.65,-35.54 -146.16,18.29 -182.05,79.79 -4.88,8.36 -9.23,16.9 -13.59,25.61 1.57,-22.48 2.26,-44.77 0.7,-66.73 -1.39,-20.38 -48.26,-49.3 -55.57,-20.03 -19.69,78.57 -17.07,166.89 -23.69,247.55 -2.27,25.96 -4.36,52.09 -6.62,78.05 -7.32,4.53 -14.63,9.23 -21.77,14.29 -105.05,74.21 -159.93,203.83 -116.72,330.48 19.34,56.44 89.37,105.4 134.67,47.04 36.41,-47.21 39.89,-123.16 47.04,-179.61 7.32,-57.14 12.54,-114.45 17.42,-171.77 26.31,32.06 72.82,45.12 120.21,29.45 70.73,-23.52 128.74,-80.66 160.45,-148.08 30.14,-4.01 60.1,-6.97 89.37,-9.06 9.93,-0.7 2.44,-16.2 -5.05,-16.02l0 0zm-434.83 206.62c-6.79,70.2 -9.93,144.59 -29.96,212.54 -4.53,15.85 -10.8,31.88 -18.29,39.89 -3.48,3.66 -13.77,12.19 -18.82,8.01 -19.16,-15.51 -22.47,-54.7 -24.73,-77.35 -3.48,-36.23 -0.88,-74.91 10.28,-109.58 14.63,-46.34 45.29,-85.37 81.36,-117.25 1.39,-1.22 2.96,-2.61 4.53,-3.83 -1.57,15.85 -2.79,31.7 -4.35,47.56l0 0zm155.57 -98.26c-30.31,10.8 -45.29,6.09 -57.66,-11.5 47.21,-23.87 98.25,-41.12 150.69,-53.48 -25.44,28.05 -57.66,52.43 -93.03,64.98l0 0zm117.07 -96.17c-66.37,10.1 -131.88,27 -192.5,53.66 -1.05,-1.04 -2.27,-2.09 -3.48,-2.96 2.09,-24.74 4.18,-49.47 6.27,-74.04 8.19,-28.74 18.12,-57.31 30.66,-84.14 13.59,-29.09 31.7,-57.31 56.62,-78.22 29.62,-25.09 85.88,-42.51 116.2,-10.28 47.21,50.52 21.6,140.77 -13.76,195.99l0 0zm451.38 -37.63c-52.44,41.46 -131.36,91.29 -202.43,79.79 -36.59,-6.09 -46.86,-33.79 -43.73,-64.11 34.5,-4.35 69.16,-13.93 101.4,-25.61 32.75,-11.84 78.91,-28.92 98.08,-60.1 15.51,-24.91 5.93,-53.66 -14.11,-73.52 -26.65,-26.31 -64.8,-31.71 -100,-22.3 -68.47,18.47 -130.83,77.7 -142.33,148.95 -10.45,65.15 31.01,135.36 97.91,146.68 86.76,14.64 172.12,-50.7 231.87,-105.05 13.24,-12.19 -12.72,-35.71 -26.65,-24.74l0 0zm-145.64 -106.44c11.85,-4.35 55.57,-16.73 49.65,2.79 -8.88,29.61 -56.27,52.26 -81.71,64.46 -19.86,9.41 -40.07,16.2 -60.63,22.48 5.75,-15.16 13.77,-29.09 22.48,-39.2 18.81,-22.3 42.68,-40.07 70.2,-50.52l0 0zm362.72 137.97c-32.93,28.58 -66.2,57.84 -97.56,88.5 -3.66,-4.36 -7.32,-8.71 -11.15,-13.42 -59.58,-71.6 -79.44,-202.96 34.49,-235.88 44.43,-12.72 6.1,-78.05 -30.14,-68.99 -91.98,22.82 -134.49,107.66 -121.25,197.56 7.49,51.57 35.37,98.08 68.99,136.76 6.62,7.67 14.81,14.46 22.12,21.6 -32.58,34.32 -84.5,88.15 -77.35,137.98 11.32,79.79 98.95,64.81 132.93,10.97 21.77,-34.66 28.57,-77.7 20.03,-117.77 -3.31,-15.85 -9.23,-28.4 -16.55,-40.07 30.83,-33.62 63.24,-66.03 97.04,-97.04 10.63,-9.76 -10.63,-29.62 -21.6,-20.21l0 0zm-108.71 214.63c-2.26,24.22 -11.32,48.26 -32.75,61.5 -20.38,12.72 -36.06,5.05 -33.45,-17.77 3.84,-31.88 34.5,-65.16 53.83,-88.85 2.44,-2.96 5.05,-5.75 7.66,-8.71 5.4,17.42 6.27,36.76 4.71,53.83l0 0z"/>
  <path class="fil1" d="M4580.74 758.06c-33.21,5.61 -66.85,9.25 -100.34,10.37 -6.73,-40.08 -21.44,-77.5 -45.97,-108.89 -13.73,-17.65 -29.85,-32.79 -47.37,-45.12 76.24,-30.41 148.55,-99.08 165.65,-186.67 13.45,-68.25 1.97,-154.72 -55.64,-179.52 -80.86,-35.04 -154.01,84.36 -196.75,156.68 -27.05,45.83 -51.43,95.15 -73.85,146.03 14.71,-67.97 31.39,-135.52 46.52,-203.35 7.99,-36.29 -42.46,-83.52 -53.11,-42.18 -30.27,119.12 -59.98,239.78 -77.92,363.38 -15.56,108.89 -30.41,245.95 13.45,346.99 39.38,90.95 116.31,123.32 189.89,84.78 65.03,-34.19 111.83,-114.77 130.47,-200.82 6.16,-28.73 9.25,-58.02 8.69,-86.47 37.69,-1.55 75.12,-6.45 110.71,-12.34 21.44,-3.64 3.08,-45.83 -14.43,-42.88l0 0zm-208.67 -102.16c36.58,25.36 58.3,65.31 64.18,112.53 -12.33,-0.42 -24.67,-1.12 -37,-2.38 -38.26,-3.92 -78.48,-10.79 -112.95,-34.19 -22,-14.99 -68.81,-74.97 -28.87,-99.64 3.5,-2.1 7.15,-3.64 10.93,-4.9 16.67,4.21 34.75,5.19 53.53,3.51 18.92,6.17 37,15.98 50.17,25.09l0 0zm-53.11 -190.87c27.05,-45.4 58.02,-88.01 92.91,-123.6 19.2,-19.62 46.1,-44.29 72.17,-39.24 22.42,4.34 23.83,29.01 22.84,53.53 -2.94,72.87 -49.89,123.04 -96.42,154.01 -17.24,11.49 -35.17,21.44 -53.67,29.01 -21.86,8.97 -52.97,10.23 -83.1,11.77 13.87,-29.29 28.73,-57.87 45.27,-85.49l0 0zm33.21 537.44c-51.43,46.25 -126.69,68.11 -154.72,-24.52 -21.16,-69.93 -15.42,-157.52 -4.63,-237.12 7.15,-17.38 14.3,-34.75 21.3,-52.27 15.42,46.1 48.21,76.1 84.36,93.19 43.58,20.6 90.81,29.42 138.74,31.53 -0.56,8.13 -1.4,16.39 -2.8,24.8 -10.93,65.03 -39.94,126.41 -82.26,164.38l0 0zm494.13 -175.03c-19.34,2.52 -40.5,3.92 -61.52,2.8 8.55,-53.53 -2.1,-111.55 -36.86,-150.23 -27.33,-30.27 -69.79,-26.63 -96.84,2.38 -1.68,1.82 -3.22,3.64 -4.76,5.61 -2.38,0.28 -4.77,0.98 -7.01,2.52 -58.72,37.84 -98.8,138.74 -80.44,206.57 26.35,97.82 140.98,89.13 192.27,18.22 13.03,-17.8 22.7,-39.24 28.87,-62.36 24.94,1.4 50.31,-1.4 73.99,-7.85 11.63,-3.08 1.54,-18.92 -7.71,-17.65l0 0zm-159.62 73.29c-18.92,12.05 -62.36,29.43 -71.89,0.7 -14.15,-42.6 8.83,-83.24 31.25,-122.06 1.96,3.5 4.2,6.86 6.59,10.09 20.32,27.75 48.49,45.55 79.74,55.22 -9.95,22.56 -24.94,43.02 -45.69,56.06l0 0zm58.3 -97.82c-1.26,6.72 -2.8,13.59 -4.9,20.32 -24.38,-6.86 -46.39,-19.34 -62.5,-40.08 -7.29,-9.39 -13.45,-20.18 -16.11,-31.39 5.18,-9.67 9.53,-19.2 12.75,-28.73 1.68,-4.62 0.84,-10.23 -1.4,-15.55 13.31,-15.98 35.73,-28.17 53.67,-14.71 28.59,21.3 24.11,80.16 18.5,110.15l0 0zm381.32 24.52c-19.34,2.52 -40.5,3.92 -61.52,2.8 8.55,-53.53 -2.1,-111.55 -36.86,-150.23 -27.33,-30.27 -69.79,-26.63 -96.84,2.38 -1.68,1.82 -3.22,3.64 -4.76,5.61 -2.38,0.28 -4.77,0.98 -7.01,2.52 -58.72,37.84 -98.8,138.74 -80.44,206.57 26.35,97.82 140.98,89.13 192.27,18.22 13.03,-17.8 22.7,-39.24 28.87,-62.36 24.94,1.4 50.31,-1.4 73.99,-7.85 11.63,-3.08 1.54,-18.92 -7.71,-17.65l0 0zm-159.62 73.29c-18.92,12.05 -62.36,29.43 -71.89,0.7 -14.15,-42.6 8.83,-83.24 31.25,-122.06 1.96,3.5 4.2,6.86 6.59,10.09 20.32,27.75 48.49,45.55 79.74,55.22 -9.95,22.56 -24.94,43.02 -45.69,56.06l0 0zm58.3 -97.82c-1.26,6.72 -2.8,13.59 -4.9,20.32 -24.38,-6.86 -46.39,-19.34 -62.5,-40.08 -7.29,-9.39 -13.45,-20.18 -16.11,-31.39 5.18,-9.67 9.53,-19.2 12.75,-28.73 1.68,-4.62 0.84,-10.23 -1.4,-15.55 13.31,-15.98 35.73,-28.17 53.67,-14.71 28.59,21.3 24.11,80.16 18.5,110.15l0 0zm330.88 24.8c-14.71,26.77 -39.24,45.83 -70.77,48.21 -45.27,3.36 -47.51,-41.62 -63.91,-71.89 41.2,-18.08 81.99,-73.72 93.75,-114.64 9.67,-33.49 -13.45,-81.42 -53.11,-78.34 -44.99,3.51 -69.65,69.51 -78.06,105.67 -8.97,39.38 -12.05,80.02 -11.77,120.52 -4.9,-15.14 -9.53,-30.55 -12.75,-46.25 -7.71,-37.7 -11.35,-75.96 -11.49,-114.22 68.39,-50.87 126.83,-112.95 171.95,-185.82 28.59,-46.1 89.69,-135.24 49.19,-189.19 -44.99,-59.98 -136.92,-12.19 -173.92,30.41 -58.16,66.85 -82.96,160.74 -92.77,246.92 -6.45,56.62 -6.31,114.21 1.54,170.69 7.15,52.13 19.62,110.57 46.81,156.4 6.59,11.07 26.48,16.4 36.02,9.95 4.34,0.84 8.41,-0.56 8.83,-6.03 1.26,-17.52 1.96,-36.02 2.52,-54.8 16.11,27.89 46.25,51.01 72.73,53.39 46.95,4.21 84.93,-28.87 104.69,-69.09 4.76,-9.81 -13.45,-22.56 -19.48,-11.91l0 0zm-159.06 -403.32c21.86,-49.05 63.48,-112.81 125.14,-111.13 21.44,0.7 24.81,9.53 23.13,29.15 -1.4,17.94 -7.43,35.46 -13.59,52.13 -10.09,26.91 -22.98,52.69 -36.44,77.92 -37.42,69.51 -88.29,129.07 -147.01,181.06 2.52,-78.05 16.82,-157.51 48.77,-229.13l0 0zm9.81 326.53c4.76,-25.09 12.33,-49.05 24.94,-70.63 5.61,-9.67 38.96,-55.91 44.14,-24.94 1.96,12.47 -16.54,36.44 -22.98,45.54 -12.75,18.22 -30.83,33.35 -46.1,50.03l0 0z"/>
  <g id="_2262060949520">
   <path class="fil2" d="M731.82 1208.45c253.39,0 458.79,33.58 458.79,75.01 0,41.42 -205.41,75.01 -458.79,75.01 -253.39,0 -458.79,-33.58 -458.79,-75.01 0,-41.42 205.41,-75.01 458.79,-75.01z"/>
   <g>
    <path class="fil2" d="M731.63 230.09c180.88,-196.37 326.44,-280.8 732.02,-199.09l-100.76 946.89c-227.67,-91.94 -422.88,-31.68 -631.96,179.24 0,-419.69 0.7,-507.35 0.7,-927.04z"/>
    <path class="fil2" d="M732.02 233.11c-180.87,-196.37 -326.44,-280.8 -732.02,-199.09l100.76 946.89c227.66,-91.94 422.87,-31.68 631.95,179.24 0,-419.69 -0.7,-507.35 -0.7,-927.04z"/>
    <path class="fil2" d="M455.35 489.14c49.15,0 89,39.85 89,89 0,49.15 -39.85,89 -89,89 -49.15,0 -89,-39.85 -89,-89 0,-49.15 39.85,-89 89,-89z"/>
    <path class="fil2" d="M590.38 331.91c24.35,0 44.1,19.75 44.1,44.1 0,24.35 -19.75,44.1 -44.1,44.1 -24.35,0 -44.1,-19.75 -44.1,-44.1 0,-24.35 19.75,-44.1 44.1,-44.1z"/>
   </g>
   <g>
    <path class="fil3" d="M731.64 264.56c173.89,-188.8 313.84,-269.96 703.77,-191.41l-96.87 910.35c-218.87,-88.39 -406.56,-30.46 -607.57,172.32 0,-403.49 0.68,-487.78 0.68,-891.26z"/>
    <path class="fil3" d="M732.01 267.46c-173.9,-188.8 -313.84,-269.96 -703.77,-191.41l96.87 910.35c218.88,-88.39 406.56,-30.46 607.57,172.32 0,-403.49 -0.67,-487.78 -0.67,-891.26z"/>
    <path class="fil3" d="M466.02 513.61c47.26,0 85.57,38.31 85.57,85.56 0,47.25 -38.31,85.56 -85.57,85.56 -47.25,0 -85.56,-38.31 -85.56,-85.56 0,-47.26 38.31,-85.56 85.56,-85.56z"/>
    <path class="fil3" d="M595.83 362.45c23.41,0 42.4,18.99 42.4,42.4 0,23.41 -18.99,42.39 -42.4,42.39 -23.41,0 -42.39,-18.99 -42.39,-42.39 0,-23.41 18.99,-42.4 42.39,-42.4z"/>
   </g>
   <path class="fil4" d="M731.65 296.95c165.28,-179.44 298.29,-256.58 668.89,-181.92l-92.07 865.25c-208.03,-84.01 -386.41,-28.95 -577.46,163.78 0,-383.5 0.64,-463.61 0.64,-847.11z"/>
   <path class="fil5" d="M732 299.71c-165.28,-179.45 -298.3,-256.59 -668.9,-181.92l92.07 865.24c208.03,-84.01 386.41,-28.95 577.46,163.78 0,-383.5 -0.64,-463.61 -0.64,-847.1z"/>
   <path class="fil3" d="M553.67 697.04c11.11,84.34 133.09,152.44 249.06,121.35 51.45,-13.78 94.55,-43.13 119.79,-76.29 36.49,-47.93 44.6,-83.03 38.36,-154.13 -25.79,0.81 -78.42,19.1 -104.78,26.2l-302.44 82.88zm291.34 -203.31c28.01,-39.6 91.62,-71.4 145.83,-75.95 24.32,-2.04 50.23,8.95 68.05,-0.12 18.66,-17.67 -20.01,-71.93 -125.43,-19.1 -38.85,19.47 -82.82,58.52 -101.81,94 -30.39,-2.46 -157.25,-74.21 -187.89,-70.71 -14.74,65.31 9.82,85.41 32.47,116.63l190.47 0.61c4.23,-11.69 6.75,-10.64 6.97,-25.33 -28.11,-14.24 -24.35,-7.22 -28.68,-20.03zm49.2 54.92l-313.47 -0.74c-17.83,-0.39 -28.94,-4.44 -31.08,10.77 -1.05,7.5 5.94,31.55 8.32,37.15 9.63,22.66 18.22,34.6 34.73,50.96 27.64,27.37 22.69,19.45 60.36,8.79l202.07 -56.38c33.7,-9.43 42.83,-5.64 39.06,-50.55z"/>
  </g>
 </g>
</svg>
