<?xml version="1.0" encoding="UTF-8"?>
<!DOCTYPE svg PUBLIC "-//W3C//DTD SVG 1.1//EN" "http://www.w3.org/Graphics/SVG/1.1/DTD/svg11.dtd">
<!-- Creator: CorelDRAW Standard 2021 (64 Bit) -->
<svg xmlns="http://www.w3.org/2000/svg" xml:space="preserve" width="67.9228mm" height="43.7142mm" version="1.1" style="shape-rendering:geometricPrecision; text-rendering:geometricPrecision; image-rendering:optimizeQuality; fill-rule:evenodd; clip-rule:evenodd"
viewBox="0 0 3649.23 2348.59"
 xmlns:xlink="http://www.w3.org/1999/xlink"
 xmlns:xodm="http://www.corel.com/coreldraw/odm/2003">
 <defs>
  <style type="text/css">
   <![CDATA[
    .fil2 {fill:#CCCCCC}
    .fil4 {fill:#D00807}
    .fil5 {fill:red}
    .fil3 {fill:white}
    .fil0 {fill:#4D4D4D;fill-rule:nonzero}
    .fil1 {fill:#D00807;fill-rule:nonzero}
   ]]>
  </style>
 </defs>
 <g id="Camada_x0020_1">
  <metadata id="CorelCorpID_0Corel-Layer"/>
  <path class="fil0" d="M44.84 1196.18c-10.9,161.64 -18.4,323.28 -26.43,485.28 -3.93,79.48 -7.86,158.96 -11.61,238.44 -3.93,79.48 -12.5,162.53 -1.07,241.48 3.4,22.15 39.83,57.15 49.48,22.86 20.36,-72.69 18.57,-155.56 22.32,-231.83 0.36,-8.57 0.71,-17.14 1.25,-25.72 5.36,-21.61 9.47,-44.11 14.47,-64.65 0.18,-1.25 0.54,-2.5 0.89,-3.57 3.75,92.7 53.05,179.14 116.81,220.22 46.8,30.18 98.23,45.01 150.57,45.9 52.33,0.71 77.52,-56.26 39.83,-107.52 -8.57,-11.79 -21.25,-15.01 -32.68,-10.18 -12.86,5.36 -21.08,18.22 -35.01,21.79 -11.97,3.21 -28.05,1.25 -39.83,1.25 -31.61,0.18 -61.8,3.4 -90.56,-16.79 -50.9,-35.72 -75.73,-104.66 -80.01,-175.93 9.47,7.68 19.65,13.57 30.36,16.79 55.73,17.5 117.7,-9.83 165.21,-46.44 92.88,-71.62 161.29,-189.5 186.29,-325.42 22.87,-124.31 -0.53,-295.06 -110.2,-335.61 -116.63,-43.05 -194.86,101.09 -228.27,223.97 -26.79,97.88 -45.9,200.22 -67.87,300.07 -3.21,14.29 -6.43,28.58 -9.46,42.86 -0.18,0.18 -0.36,0.18 -0.36,0.18 7.68,-162.54 15.9,-324.89 20.9,-487.6 1.25,-42.69 -61.44,-84.66 -65.01,-29.83l0 0zm119.66 583.69c-13.57,3.57 -65.37,-3.93 -35.01,-26.97 25.54,-19.29 61.45,-15 90.92,-1.78 -5.72,3.4 -11.61,6.79 -17.5,10.18 -12.32,6.96 -25,15 -38.4,18.57l0 0zm25.9 -316.5c19.29,-77.87 39.65,-168.43 96.8,-213.44 45.01,-35.54 116.63,-59.83 144.85,17.5 45.73,124.85 -27.15,293.27 -93.77,380.44 -24.29,31.97 -51.62,57.15 -80.91,78.76 -39.11,-27.68 -81.98,-38.22 -123.95,-29.65 18.93,-77.88 37.68,-155.75 56.98,-233.62l0 0zm620.31 324.53c-53.76,42.51 -134.68,93.59 -207.54,81.8 -37.51,-6.25 -48.05,-34.65 -44.83,-65.73 35.37,-4.46 70.91,-14.29 103.95,-26.26 33.58,-12.14 80.91,-29.65 100.55,-61.62 15.9,-25.54 6.08,-55.01 -14.47,-75.37 -27.33,-26.97 -66.44,-32.51 -102.52,-22.86 -70.19,18.93 -134.13,79.66 -145.92,152.71 -10.72,66.8 31.79,138.77 100.38,150.38 88.95,15.01 176.46,-51.97 237.73,-107.7 13.58,-12.5 -13.04,-36.61 -27.33,-25.36l0 0zm-149.32 -109.13c12.15,-4.46 56.98,-17.15 50.91,2.86 -9.11,30.36 -57.69,53.58 -83.77,66.08 -20.36,9.64 -41.08,16.61 -62.16,23.04 5.89,-15.54 14.11,-29.83 23.04,-40.19 19.29,-22.86 43.76,-41.08 71.98,-51.8l0 0zm530.47 101.98c-47.15,60.91 -111.27,101.1 -185.75,119.67 -34.11,8.4 -80.55,16.07 -110.91,-6.96 -29.83,-22.68 -33.76,-71.98 -27.86,-105.38 14.65,-82.7 89.12,-156.46 174.14,-161.28 15.54,-0.89 32.5,-1.61 44.29,10 17.33,16.97 12.15,47.51 0,65.91 -7.85,11.79 -22.32,24.83 -36.79,27.33 -28.58,5 -31.08,-41.79 -33.76,-61.8 -1.25,-9.11 -20.54,-18.4 -21.43,-5 -2.33,35.36 5.89,84.84 45.9,95.91 33.4,9.29 68.23,-13.58 85.38,-40.72 22.51,-35.54 16.07,-84.84 -13.39,-114.48 -33.22,-33.4 -81.45,-35.91 -125.21,-25.54 -94.84,22.15 -172.89,114.13 -176.1,212.54 -3.22,96.27 65.37,176.82 165.03,166.46 96.99,-10.18 187.9,-74.3 242.01,-152.89 9.47,-13.93 -15,-37.51 -25.54,-23.76l0 0zm225.41 15.72c-22.68,23.93 -127.53,141.28 -152.89,82.16 -17.15,-39.83 -8.57,-91.45 -1.61,-132.88 4.82,-29.83 12.15,-59.12 20.72,-88.06 2.14,-0.71 4.1,-1.61 6.43,-2.68 26.26,-12.86 0,-45.9 -16.43,-52.87 -8.57,-3.57 -15.18,-5.18 -24.29,-6.25 -9.64,-1.07 -22.15,2.85 -25.36,13.22 -28.04,89.3 -68.59,235.58 6.25,312.74 78.05,80.37 174.86,-40.36 212.19,-106.27 6.61,-11.79 -15.36,-29.29 -25,-19.11l0 0zm-141.1 -291.49c5,2.86 10.36,4.65 16.07,5.18 6.79,0.9 13.22,-0.18 19.46,-3.04 6.43,-1.97 14.11,-5.53 18.4,-10.72 9.64,-11.43 11.96,-28.04 5.53,-41.61 -9.64,-20.36 -30.72,-33.76 -53.4,-30.9 -6.61,0.71 -12.15,3.22 -18.22,5.54 -8.57,2.68 -14.82,7.15 -18.93,15.54 -5.53,11.26 -1.25,25.19 4.46,35.19 6.43,11.07 15.18,19.47 26.62,24.83l0 0zm558.33 308.99c-25.18,0.18 -50.91,1.25 -76.8,2.86 4.11,-11.07 7.5,-22.51 10.36,-33.94 18.58,-79.3 -3.21,-177.18 -81.98,-215.94 -74.48,-36.44 -149.85,18.76 -186.64,81.8 -5,8.57 -9.47,17.33 -13.93,26.26 1.61,-23.04 2.32,-45.9 0.71,-68.41 -1.43,-20.89 -49.48,-50.55 -56.98,-20.54 -20.18,80.55 -17.5,171.11 -24.29,253.8 -2.33,26.62 -4.47,53.4 -6.79,80.02 -7.5,4.64 -15,9.47 -22.32,14.65 -107.7,76.09 -163.97,208.97 -119.67,338.82 19.82,57.87 91.62,108.06 138.07,48.22 37.33,-48.4 40.9,-126.27 48.22,-184.15 7.5,-58.58 12.86,-117.34 17.86,-176.11 26.97,32.86 74.66,46.26 123.24,30.19 72.51,-24.11 131.99,-82.7 164.5,-151.82 30.9,-4.11 61.62,-7.15 91.62,-9.29 10.18,-0.71 2.5,-16.61 -5.18,-16.43l0 0zm-445.81 211.83c-6.96,71.98 -10.18,148.24 -30.72,217.9 -4.64,16.25 -11.07,32.68 -18.75,40.9 -3.57,3.75 -14.11,12.5 -19.29,8.21 -19.65,-15.9 -23.04,-56.08 -25.36,-79.31 -3.57,-37.15 -0.9,-76.8 10.54,-112.34 15,-47.51 46.44,-87.52 83.41,-120.21 1.43,-1.25 3.04,-2.68 4.64,-3.93 -1.61,16.25 -2.86,32.5 -4.46,48.76l0 0zm159.5 -100.74c-31.08,11.07 -46.44,6.25 -59.11,-11.79 48.4,-24.47 100.73,-42.15 154.49,-54.83 -26.08,28.75 -59.12,53.76 -95.38,66.62l0 0zm120.03 -98.59c-68.05,10.36 -135.21,27.69 -197.36,55.01 -1.07,-1.07 -2.33,-2.14 -3.57,-3.04 2.14,-25.36 4.29,-50.72 6.43,-75.91 8.39,-29.47 18.57,-58.76 31.44,-86.27 13.93,-29.83 32.5,-58.76 58.05,-80.19 30.37,-25.72 88.05,-43.58 119.13,-10.54 48.4,51.8 22.15,144.32 -14.11,200.94l0 0zm462.78 -38.58c-53.76,42.51 -134.68,93.59 -207.54,81.8 -37.51,-6.25 -48.05,-34.65 -44.83,-65.73 35.37,-4.46 70.91,-14.29 103.95,-26.26 33.58,-12.14 80.91,-29.65 100.55,-61.62 15.9,-25.54 6.08,-55.01 -14.47,-75.37 -27.33,-26.97 -66.44,-32.51 -102.52,-22.86 -70.19,18.93 -134.13,79.66 -145.92,152.71 -10.72,66.8 31.79,138.77 100.38,150.38 88.95,15.01 176.46,-51.97 237.73,-107.7 13.58,-12.5 -13.04,-36.61 -27.33,-25.36l0 0zm-149.32 -109.13c12.15,-4.46 56.98,-17.15 50.91,2.86 -9.11,30.36 -57.69,53.58 -83.77,66.08 -20.36,9.64 -41.08,16.61 -62.16,23.04 5.89,-15.54 14.11,-29.83 23.04,-40.19 19.29,-22.86 43.76,-41.08 71.98,-51.8l0 0zm371.87 141.46c-33.76,29.3 -67.87,59.3 -100.02,90.74 -3.75,-4.47 -7.51,-8.93 -11.43,-13.75 -61.09,-73.41 -81.44,-208.08 35.36,-241.84 45.55,-13.04 6.25,-80.02 -30.9,-70.73 -94.31,23.4 -137.88,110.38 -124.31,202.54 7.68,52.87 36.26,100.56 70.73,140.21 6.79,7.86 15.18,14.82 22.68,22.15 -33.4,35.19 -86.63,90.38 -79.31,141.46 11.61,81.8 101.45,66.44 136.28,11.25 22.32,-35.54 29.29,-79.66 20.54,-120.74 -3.4,-16.25 -9.47,-29.11 -16.97,-41.08 31.61,-34.47 64.83,-67.69 99.48,-99.48 10.9,-10 -10.9,-30.37 -22.15,-20.72l0 0zm-111.45 220.05c-2.32,24.83 -11.61,49.48 -33.58,63.05 -20.89,13.04 -36.97,5.18 -34.29,-18.22 3.93,-32.69 35.37,-66.8 55.19,-91.09 2.5,-3.04 5.18,-5.89 7.85,-8.93 5.54,17.86 6.43,37.69 4.82,55.19l0 0z"/>
  <path class="fil1" d="M2827.38 1826.44c-34.05,5.75 -68.54,9.48 -102.87,10.63 -6.9,-41.09 -21.98,-79.46 -47.13,-111.64 -14.08,-18.1 -30.6,-33.62 -48.56,-46.26 78.16,-31.18 152.3,-101.58 169.83,-191.38 13.79,-69.97 2.01,-158.62 -57.04,-184.05 -82.9,-35.92 -157.9,86.49 -201.72,160.63 -27.73,46.98 -52.73,97.56 -75.72,149.71 15.09,-69.68 32.18,-138.94 47.7,-208.48 8.19,-37.21 -43.53,-85.63 -54.45,-43.24 -31.04,122.12 -61.49,245.83 -79.89,372.55 -15.95,111.64 -31.18,252.15 13.79,355.75 40.38,93.24 119.25,126.43 194.68,86.92 66.67,-35.06 114.66,-117.67 133.77,-205.89 6.32,-29.46 9.48,-59.49 8.91,-88.65 38.65,-1.58 77.01,-6.61 113.5,-12.65 21.98,-3.73 3.16,-46.98 -14.8,-43.96l0 0zm-213.94 -104.74c37.5,26 59.77,66.95 65.8,115.37 -12.64,-0.43 -25.29,-1.15 -37.93,-2.44 -39.23,-4.02 -80.46,-11.06 -115.8,-35.06 -22.56,-15.37 -70.55,-76.87 -29.6,-102.15 3.59,-2.15 7.33,-3.73 11.21,-5.03 17.1,4.31 35.63,5.32 54.88,3.59 19.4,6.32 37.93,16.38 51.44,25.72l0 0zm-54.45 -195.69c27.73,-46.55 59.48,-90.23 95.26,-126.72 19.69,-20.12 47.27,-45.4 73.99,-40.23 22.99,4.45 24.43,29.74 23.42,54.88 -3.01,74.71 -51.15,126.15 -98.85,157.9 -17.67,11.78 -36.06,21.98 -55.03,29.74 -22.41,9.2 -54.31,10.49 -85.2,12.07 14.22,-30.03 29.45,-59.34 46.41,-87.64l0 0zm34.05 551c-52.73,47.41 -129.89,69.83 -158.62,-25.14 -21.69,-71.69 -15.81,-161.5 -4.74,-243.1 7.33,-17.82 14.66,-35.63 21.84,-53.59 15.81,47.27 49.43,78.02 86.49,95.55 44.68,21.12 93.1,30.17 142.24,32.33 -0.57,8.33 -1.43,16.81 -2.87,25.43 -11.2,66.67 -40.94,129.6 -84.33,168.53l0 0zm506.6 -179.45c-19.82,2.58 -41.52,4.02 -63.07,2.87 8.76,-54.88 -2.15,-114.37 -37.79,-154.02 -28.02,-31.03 -71.55,-27.3 -99.28,2.44 -1.72,1.87 -3.3,3.73 -4.88,5.75 -2.44,0.28 -4.89,1 -7.19,2.58 -60.2,38.8 -101.29,142.24 -82.47,211.78 27.01,100.29 144.54,91.38 197.13,18.68 13.36,-18.25 23.27,-40.23 29.6,-63.93 25.57,1.43 51.58,-1.44 75.86,-8.05 11.93,-3.16 1.58,-19.4 -7.9,-18.1l0 0zm-163.65 75.14c-19.4,12.36 -63.93,30.17 -73.71,0.72 -14.51,-43.68 9.05,-85.34 32.04,-125.14 2.01,3.59 4.31,7.04 6.75,10.34 20.83,28.45 49.71,46.7 81.75,56.61 -10.2,23.13 -25.57,44.11 -46.84,57.47l0 0zm59.77 -100.29c-1.29,6.89 -2.87,13.94 -5.03,20.83 -25,-7.04 -47.56,-19.82 -64.08,-41.09 -7.47,-9.63 -13.79,-20.69 -16.52,-32.18 5.31,-9.92 9.77,-19.69 13.07,-29.46 1.72,-4.74 0.86,-10.49 -1.43,-15.95 13.65,-16.38 36.64,-28.88 55.03,-15.09 29.31,21.84 24.71,82.18 18.97,112.93l0 0zm390.95 25.14c-19.82,2.58 -41.52,4.02 -63.07,2.87 8.76,-54.88 -2.15,-114.37 -37.79,-154.02 -28.02,-31.03 -71.55,-27.3 -99.28,2.44 -1.72,1.87 -3.3,3.73 -4.88,5.75 -2.44,0.28 -4.89,1 -7.19,2.58 -60.2,38.8 -101.29,142.24 -82.47,211.78 27.01,100.29 144.54,91.38 197.13,18.68 13.36,-18.25 23.27,-40.23 29.6,-63.93 25.57,1.43 51.58,-1.44 75.86,-8.05 11.93,-3.16 1.58,-19.4 -7.9,-18.1l0 0zm-163.65 75.14c-19.4,12.36 -63.93,30.17 -73.71,0.72 -14.51,-43.68 9.05,-85.34 32.04,-125.14 2.01,3.59 4.31,7.04 6.75,10.34 20.83,28.45 49.71,46.7 81.75,56.61 -10.2,23.13 -25.57,44.11 -46.84,57.47l0 0zm59.77 -100.29c-1.29,6.89 -2.87,13.94 -5.03,20.83 -25,-7.04 -47.56,-19.82 -64.08,-41.09 -7.47,-9.63 -13.79,-20.69 -16.52,-32.18 5.31,-9.92 9.77,-19.69 13.07,-29.46 1.72,-4.74 0.86,-10.49 -1.43,-15.95 13.65,-16.38 36.64,-28.88 55.03,-15.09 29.31,21.84 24.71,82.18 18.97,112.93l0 0zm339.23 25.43c-15.09,27.44 -40.23,46.98 -72.56,49.42 -46.41,3.45 -48.71,-42.67 -65.52,-73.7 42.24,-18.54 84.05,-75.58 96.12,-117.53 9.91,-34.34 -13.79,-83.47 -54.45,-80.32 -46.12,3.59 -71.41,71.26 -80.03,108.33 -9.2,40.38 -12.36,82.04 -12.07,123.56 -5.03,-15.52 -9.77,-31.32 -13.08,-47.41 -7.9,-38.65 -11.64,-77.88 -11.78,-117.1 70.12,-52.15 130.03,-115.8 176.29,-190.51 29.31,-47.27 91.95,-138.65 50.43,-193.97 -46.12,-61.49 -140.38,-12.5 -178.31,31.18 -59.63,68.53 -85.05,164.79 -95.11,253.16 -6.61,58.05 -6.47,117.1 1.58,175 7.33,53.45 20.12,113.36 47.99,160.35 6.75,11.35 27.15,16.81 36.93,10.2 4.45,0.86 8.62,-0.57 9.05,-6.18 1.29,-17.96 2.01,-36.93 2.58,-56.18 16.52,28.59 47.41,52.3 74.57,54.74 48.13,4.31 87.07,-29.6 107.33,-70.83 4.88,-10.06 -13.79,-23.13 -19.97,-12.21l0 0zm-163.07 -413.5c22.41,-50.29 65.08,-115.66 128.3,-113.94 21.98,0.72 25.43,9.77 23.71,29.89 -1.44,18.39 -7.62,36.35 -13.94,53.45 -10.35,27.59 -23.56,54.02 -37.36,79.89 -38.37,71.26 -90.52,132.33 -150.72,185.63 2.58,-80.03 17.24,-161.49 50,-234.91l0 0zm10.06 334.77c4.88,-25.72 12.64,-50.29 25.57,-72.41 5.75,-9.91 39.95,-57.33 45.26,-25.57 2.01,12.79 -16.96,37.36 -23.56,46.69 -13.07,18.68 -31.61,34.2 -47.27,51.29l0 0z"/>
  <path class="fil2" d="M1835.62 1238.96c259.78,0 470.37,34.43 470.37,76.9 0,42.47 -210.59,76.9 -470.37,76.9 -259.78,0 -470.37,-34.43 -470.37,-76.9 0,-42.47 210.59,-76.9 470.37,-76.9z"/>
  <g id="_2262403313920">
   <g>
    <path class="fil2" d="M1835.42 235.9c185.44,-201.33 334.68,-287.89 750.49,-204.11l-103.3 970.79c-233.41,-94.26 -433.55,-32.48 -647.91,183.76 0,-430.28 0.71,-520.16 0.71,-950.44z"/>
    <path class="fil2" d="M1835.82 238.99c-185.44,-201.33 -334.68,-287.89 -750.49,-204.11l103.3 970.79c233.41,-94.26 433.55,-32.48 647.9,183.76 0,-430.28 -0.71,-520.16 -0.71,-950.44z"/>
    <path class="fil2" d="M1552.17 501.48c50.4,0 91.25,40.85 91.25,91.25 0,50.39 -40.85,91.24 -91.25,91.24 -50.39,0 -91.24,-40.85 -91.24,-91.24 0,-50.4 40.85,-91.25 91.24,-91.25z"/>
    <path class="fil2" d="M1690.6 340.29c24.97,0 45.21,20.25 45.21,45.22 0,24.97 -20.24,45.21 -45.21,45.21 -24.97,0 -45.21,-20.24 -45.21,-45.21 0,-24.97 20.24,-45.22 45.21,-45.22z"/>
   </g>
   <g>
    <path class="fil3" d="M1835.43 271.24c178.28,-193.56 321.77,-276.78 721.53,-196.24l-99.32 933.33c-224.4,-90.62 -416.82,-31.23 -622.91,176.67 0,-413.67 0.69,-500.09 0.69,-913.76z"/>
    <path class="fil3" d="M1835.82 274.21c-178.28,-193.56 -321.77,-276.78 -721.53,-196.24l99.31 933.33c224.4,-90.62 416.82,-31.23 622.91,176.67 0,-413.67 -0.69,-500.09 -0.69,-913.76z"/>
    <path class="fil3" d="M1563.11 526.57c48.45,0 87.73,39.27 87.73,87.72 0,48.44 -39.28,87.72 -87.73,87.72 -48.44,0 -87.72,-39.28 -87.72,-87.72 0,-48.45 39.28,-87.72 87.72,-87.72z"/>
    <path class="fil3" d="M1696.2 371.6c24,0 43.47,19.46 43.47,43.47 0,24 -19.46,43.46 -43.47,43.46 -24,0 -43.46,-19.46 -43.46,-43.46 0,-24 19.46,-43.47 43.46,-43.47z"/>
   </g>
   <path class="fil4" d="M1835.44 304.44c169.45,-183.97 305.82,-263.06 685.78,-186.52l-94.39 887.09c-213.28,-86.13 -396.17,-29.68 -592.04,167.92 0,-393.18 0.66,-475.31 0.66,-868.49z"/>
   <path class="fil5" d="M1835.8 307.28c-169.45,-183.97 -305.83,-263.06 -685.78,-186.52l94.4 887.08c213.28,-86.13 396.16,-29.68 592.04,167.92 0,-393.18 -0.66,-475.31 -0.66,-868.48z"/>
   <path class="fil3" d="M1652.97 714.63c11.39,86.47 136.45,156.28 255.34,124.41 52.75,-14.13 96.93,-44.22 122.82,-78.22 37.41,-49.14 45.73,-85.12 39.33,-158.02 -26.44,0.83 -80.4,19.58 -107.42,26.86l-310.07 84.97zm298.69 -208.45c28.72,-40.6 93.93,-73.2 149.51,-77.87 24.93,-2.1 51.5,9.17 69.76,-0.12 19.13,-18.11 -20.52,-73.74 -128.59,-19.58 -39.83,19.96 -84.91,60 -104.38,96.37 -31.16,-2.53 -161.22,-76.09 -192.63,-72.5 -15.11,66.95 10.06,87.57 33.29,119.57l195.28 0.62c4.34,-11.99 6.92,-10.91 7.15,-25.97 -28.82,-14.6 -24.96,-7.4 -29.4,-20.54zm50.44 56.31l-321.38 -0.76c-18.28,-0.4 -29.67,-4.56 -31.86,11.04 -1.08,7.69 6.09,32.34 8.53,38.09 9.87,23.24 18.68,35.48 35.61,52.25 28.34,28.06 23.26,19.94 61.89,9.02l207.17 -57.8c34.55,-9.67 43.91,-5.78 40.04,-51.83z"/>
  </g>
 </g>
</svg>
